<?xml version="1.0" encoding="utf-8"?>
<!-- Generator: Adobe Illustrator 19.0.0, SVG Export Plug-In . SVG Version: 6.00 Build 0)  -->
<svg version="1.1" id="Layer_1" xmlns="http://www.w3.org/2000/svg" xmlns:xlink="http://www.w3.org/1999/xlink" x="0px" y="0px"
	 viewBox="0 0 435.9 366.4" style="enable-background:new 0 0 435.9 366.4;" xml:space="preserve">
<style type="text/css">
	.st0{fill-rule:evenodd;clip-rule:evenodd;fill:#448993;}
</style>
<path class="st0" d="M408.2,158.7c-2.4,2.4-3.3,3.3-6.3,4.5c-6.1,3.8-4.2,6-9.7,10.2c-7.4,5.7-22.7,2.6-31.4,6.7
	c-9.9,4.7-16.4,12.5-24.6,18.4c-3.9,2.8-16.2,2-21,4.5c-3.7,1.9-9.5,8.3-10.6,12.7c0.4,2.7-11.1,5.6-10.7,8.3
	c-2.1,5.4,5.1,4.3,4.8,13.7c2.4,3.4,13.7,28,13.7,28c-2,4.8-3.6,7-3.6,15.1c2.4,2.6,21.4,29.5,21.8,31.6c-9.2,9.9,6.2,27.2,7.9,36.1
	c-0.8,0-1.5,0-2.3,0c-8.8-6.7-33.7-10.2-40.6-16.6c-5.1-4.8-5.3-13.6-11.5-17.5c-9.9-6.3-21.9-8.5-33.6-13
	c6.1-22.2-32.4-41.8-51-27.2c-2.9,2.3-11.2,8.4-12.9,11.5c-3,5.5-1.7,12.1-7.1,15.1c-2.8,1.6-7.8-0.4-11.6,1.1
	c-10.4,4-22.7,16.4-24.7,28.9c-20.8,0.5-29.3,18.4-45.5,20.6c-0.4-0.4-0.8-0.8-1.2-1.2c3.9-11.8,1.3-29.3,3.8-41.8
	c6.2-0.9,7.4-3.1,10.5-6.9c2.7-3.2,6.8-7.1,8.2-11.6c2.4-7.4-1.6-20.3,0.2-24.4c3.6-6.3,12.4-5,15.2-12.7
	c8.5-10.4,4.7-23.6,2.2-33.6c-4.5-1.3-12.3-6.8-15.9-8.4c-7-3.1-18.5-1.6-24.4-6c-2.2-2.6-0.4-4.5-2.3-8.2
	c-5.9-11.9-27.3-19-46.4-19c0-1.2,0-2.3,0-3.5c-3.6-2.3-4.1-5.4-6.9-8.2c-6.7-6.6-21-6.6-23.1-17.6c8.9-0.3,17.8-0.6,26.7-0.9
	c7.4-2,11.9-6.2,21-6.8c4.6,5.9,21.9,10.6,34.8,7.3c5.8-1.5,18.8-4.5,22.1-5.6c5.6-1.9,12.3,5.6,18.5,7.1c8,1.9,21.1,3.5,25.1,0.6
	c4.9-3.4,1.3-3.8,2.4-4.6c17.9-14.5,16-25.7,13.7-53.8c7.2-5.4,20.4-20.5,17.7-34.7c-0.6-3.2-2.9-8.7-3.4-11.7
	c1.2-3.2,5.6-6.2,7-9.2c2.8-6,2.8-17.6,8.3-20.9c0.4,6.8,6.4,12.7,9.4,17.6c4.4,7.4,7.2,14,9,18.5c-7.4,11.3,13.8,29.5,16,38.5
	c-12.1,12.9,6.5,39.3,12.2,47c2.5,3.4,0.4,11,4.1,13.1c11.8,10.3,41.4-9.4,53-6.1c1.2,1.2,2.3,2.3,3.5,3.5
	c5.5,2.5,26.7,3.8,34.9,1.4c4.5-1.3,13.2-2.6,18.4-4.8c1.5,1.6,9.2,2.3,10.7,3.9c9.7,4.3,20.6,2.6,34.9,2.6c0,0.8,0,1.6,0,2.3
	C414.5,154.8,414.5,153.9,408.2,158.7 M177.9,264.2c12.7-8.5,24.8-35.2,42.2-35.7c4,5.3,15.6,9.6,19.4,14.9
	c2.8,3.9,2.1,16.5,20.9,29.7c5.9,4.1,13.5,7,17.4,12.9c0.7,2.7,1.5,5.4,2.3,8.2c1.1,1.5,20.7,18.3,21.9,18.8c0-0.8,3.8-2.2,3.8-3
	c-6.1-5.6-9.5-11.6-12.9-20.4c-6.9-18.1-19.7-36.8-27.5-53.7c-2.8-6.2-10.6-19.5-7.9-25.7c2.7-3.8,28.5-6.1,32.3-11.2
	c2.2-2.9,24.4-6.5,36.8-12.2c1.9-1.9,7.1-6.7,9.1-8.6c5.8-2.6,12.3,1,17.5-2.2c5.4-3.4,6.2-5.3,15.4-6.1l5.5-2.2
	c7.7,0.4,9.8-5.8,11.4-6.9c-21.3-2.3-51-0.1-69.7,6.8c-7.4-0.1-25,5.7-32.3,5.6c-14.4,3.7-32.7,8.3-49,8.8c-6-14-6.3-32.1-10.1-50.1
	c0-5.8,0.1-11.6,0.1-17.4c-4.4-19.2-4.7-39.1-9.1-58.5c-0.4,0-3.2-3.7-3.6-3.7c0,3.9,0.4,9.3,0.4,13.2c-1.7,2.9-5.7,28.2-4.9,32.5
	c0.3,1.5,1.9,6,1.1,9.3c-3.1,12.2-4.4,28.5-7.3,41.8c-1.1,5.2,1.7,9.4,2.2,12.8c0.3,2-3,6.5-3.5,8.1c-3.8,11.4-2.2,13-17.5,12.7
	c-1.8-1.1-12.7-5.5-13.9-5.9c-6.6-0.1-13.2-0.1-19.8-0.2c-2-0.6-6.1-4.1-8.1-4.7c-7.4-0.1-14.7-0.1-22.1-0.2
	c-1.4-0.4-4.6-3.2-5.8-3.5c-8.5-0.5-17.1-0.9-25.6-1.4c-3.2-0.8-8.9-4-11.6-4.7c-3.1-0.9-7.7-0.7-9.3-0.5
	c-5.9,0.7-12.1-2.5-16.5-3.5c0,0.8,2.9,4.4,2.9,5.2c15.5,1.6,17.3,6.8,26.3,10.5c15.7,6.5,30.3,11.5,45.2,17.8
	c4.6,0.8,9.3,1.6,13.9,2.4c11.4,4.8,24.8,12.6,39.4,13.1c0.5,14.9-3.9,11.4-8.3,20.9c-2.1,4.6-1,10-3.6,13.9
	c-2.3,3.4-7.4,6.4-9.4,10.4c-1.2,5-2.4,10.1-3.6,15.1c-8.2,12.9-26.6,30.5-28.5,48.3c0.8,0,3,0.4,3.7,0.3c0-0.4,0-0.8,0-1.2
	c7.2-3.4,9.8-12.1,15.3-17.3c1.5-1.4,4.1-1,5.8-2.3c10.5-7.6,16.6-20.3,27.4-27.7L177.9,264.2z"/>
</svg>
